<svg clip-rule="evenodd" fill-rule="evenodd" height="320" image-rendering="optimizeQuality" shape-rendering="geometricPrecision" text-rendering="geometricPrecision" width="320" xmlns="http://www.w3.org/2000/svg"><path d="m108.5 311.5c-52.6736-18.508-87.1736-54.508-103.5-108-2.17908-8.737-4.01241-17.403-5.5-26 0-12 0-24 0-36 4.55749-34.777 18.5575-65.1099 42-91-.1309.8764.2025 1.5431 1 2 .9154-2.4803 2.4154-3.1469 4.5-2 1.6883-.8247 1.8549-1.8247.5-3 1.5565-2.2015 2.7232-2.2015 3.5 0 5.556-6.8145 12.2227-13.1478 20-19 1.5069 1.0348 3.0069.8681 4.5-.5 3.5083-2.9321 6.8417-6.0988 10-9.5 2.8529-.0231 5.3529.3102 7.5 1 .3333-1.3333.6667-2.6667 1-4 .414.4574.914.7907 1.5 1 2.6873-2.5935 5.854-4.2602 9.5-5 .333.6667.667 1.3333 1 2 1.054-2.2536 2.554-2.587 4.5-1 1.041-2.4913 1.874-2.4913 2.5 0 2.261-1.8829 4.428-3.21624 6.5-4 .667.33333 1.333.66667 2 1 2.276-.71319 4.609-1.21319 7-1.5.483-3.46213 1.65-3.96213 3.5-1.5 1.482-2.2811 3.149-2.2811 5 0 2.762-2.86067 5.595-3.194 8.5-1-.391-1.39051.442-2.39051 2.5-3 .333 1 .667 2 1 3 .869-3.26261 2.203-3.59594 4-1 3.206-1.62442 5.872-.95776 8 2 2.339-2.60488 4.672-2.93821 7-1 1.402-2.47343 2.902-2.47343 4.5 0 1.041-2.49134 1.874-2.49134 2.5 0 .626-2.49134 1.459-2.49134 2.5 0 2.684.13769 5.184-.19564 7.5-1 2.055 2.05468 4.388 3.72135 7 5 4.263-.67441 8.263.32559 12 3 1.726-1.0762 3.559-1.2429 5.5-.5 1.449 1.117 3.116 1.7837 5 2 .43.9195.764 1.7528 1 2.5 1.996-1.1096 3.829-.7763 5.5 1 .333-.6667.667-1.3333 1-2 1.683 2.0136 3.683 3.6802 6 5 .333-.6667.667-1.3333 1-2 .785 1.786 1.951 3.286 3.5 4.5 5.486 2.9937 10.152 6.327 14 10 4.857 2.1811 9.524 5.5145 14 10 1.669 1.669 3.669 2.5023 6 2.5v4c1.322-.17 2.489.1634 3.5 1 3.62 5.2886 7.62 10.2886 12 15 1.009 1.5249 1.509 3.1916 1.5 5 1.373-.1567 2.707.01 4 .5-.667.3333-1.333.6667-2 1 1.99 2.2931 3.99 4.6264 6 7-1.134 1.016-.801 1.6827 1 2-1.134 1.016-.801 1.6827 1 2-.333.3333-.667.6667-1 1 1.508 1.5067 2.841 3.1733 4 5-.457.414-.791.914-1 1.5 3.136 5.6326 6.47 11.133 10 16.5-.667.333-1.333.667-2 1 .793 1.085 1.46 2.252 2 3.5.087 2.463.087 4.963 0 7.5 3.756 3.939 5.09 8.606 4 14 2.281 1.851 2.281 3.518 0 5 3.307 4.41 3.64 8.743 1 13l3 3c.63 2.816-.036 5.482-2 8 .667.333 1.333.667 2 1-.628 2.609-1.628 5.275-3 8 1.073 1.25 1.073 2.584 0 4 .259 1.261.926 2.261 2 3-.798 1.833-1.798 3.666-3 5.5.029 1.529.696 2.696 2 3.5-.667 1-1.333 2-2 3 .522 2.481.522 4.814 0 7-.828.915-1.828 1.581-3 2 .333.333.667.667 1 1-2.444 8.664-5.277 17.164-8.5 25.5-1.281-.119-2.448.381-3.5 1.5.194 1.903.194 3.737 0 5.5-2.705 3.777-5.038 7.777-7 12 1.129 2.029.629 2.363-1.5 1-3.102 2.277-5.269 5.277-6.5 9 .209.586.543 1.086 1 1.5-7.171 6.837-14.004 14.004-20.5 21.5-.333-.333-.667-.667-1-1-3.351 3.964-7.184 7.464-11.5 10.5-.949.617-1.782.451-2.5-.5-.583 1.502-1.416 2.835-2.5 4-2.114.534-3.948 1.534-5.5 3-.333-.333-.667-.667-1-1-2.726 3.064-5.726 5.731-9 8-1.06.246-2.227.246-3.5 0-1.028 1.861-2.528 3.195-4.5 4-2 0-4 0-6 0-.853 1.625-1.853 1.958-3 1-2.343.627-4.51 1.627-6.5 3-.586-.209-1.086-.543-1.5-1-1.137.864-2.47 1.864-4 3-2.801.054-5.634.054-8.5 0-1.346 2.379-3.013 3.712-5 4-1.598-2.473-3.098-2.473-4.5 0-1.667-.333-3.333-.667-5-1-2.222 2.544-4.389 2.544-6.5 0-1.742 2.473-3.575 2.473-5.5 0-2.603 1.525-5.103 2.525-7.5 3-2.54-1.639-4.707-1.306-6.5 1-1.888-2.773-3.888-3.106-6-1-2.454-.698-4.787-1.698-7-3-.308.808-.808 1.475-1.5 2-1-1.333-2-1.333-3 0 .391-1.218-.276-2.052-2-2.5-3.179-.553-6.013-1.719-8.5-3.5-1.587 1.227-2.921.894-4-1-1.911.945-3.911.945-6 0-1.908.215-3.074 1.215-3.5 3z" fill="#1f2e23"/><path d="m141.5-.5h36c80.333 14.3333 127.667 61.6667 142 142v36c-14.333 80.333-61.667 127.667-142 142-12 0-24 0-36 0-11.147-1.634-22.147-4.3-33-8 .426-1.785 1.592-2.785 3.5-3 2.089.945 4.089.945 6 0 1.079 1.894 2.413 2.227 4 1 2.487 1.781 5.321 2.947 8.5 3.5 1.724.448 2.391 1.282 2 2.5 1-1.333 2-1.333 3 0 .692-.525 1.192-1.192 1.5-2 2.213 1.302 4.546 2.302 7 3 2.112-2.106 4.112-1.773 6 1 1.793-2.306 3.96-2.639 6.5-1 2.397-.475 4.897-1.475 7.5-3 1.925 2.473 3.758 2.473 5.5 0 2.111 2.544 4.278 2.544 6.5 0 1.667.333 3.333.667 5 1 1.402-2.473 2.902-2.473 4.5 0 1.987-.288 3.654-1.621 5-4 2.866.054 5.699.054 8.5 0 1.53-1.136 2.863-2.136 4-3 .414.457.914.791 1.5 1 1.99-1.373 4.157-2.373 6.5-3 1.147.958 2.147.625 3-1h6c1.972-.805 3.472-2.139 4.5-4 1.273.246 2.44.246 3.5 0 3.274-2.269 6.274-4.936 9-8 .333.333.667.667 1 1 1.552-1.466 3.386-2.466 5.5-3 1.084-1.165 1.917-2.498 2.5-4 .718.951 1.551 1.117 2.5.5 4.316-3.036 8.149-6.536 11.5-10.5l1 1c6.496-7.496 13.329-14.663 20.5-21.5-.457-.414-.791-.914-1-1.5 1.231-3.723 3.398-6.723 6.5-9 2.129 1.363 2.629 1.029 1.5-1 1.962-4.223 4.295-8.223 7-12 .194-1.763.194-3.597 0-5.5 1.052-1.119 2.219-1.619 3.5-1.5 3.223-8.336 6.056-16.836 8.5-25.5-.333-.333-.667-.667-1-1 1.172-.419 2.172-1.085 3-2 .522-2.186.522-4.519 0-7 .667-1 1.333-2 2-3-1.304-.804-1.971-1.971-2-3.5 1.202-1.834 2.202-3.667 3-5.5-1.074-.739-1.741-1.739-2-3 1.073-1.416 1.073-2.75 0-4 1.372-2.725 2.372-5.391 3-8-.667-.333-1.333-.667-2-1 1.964-2.518 2.63-5.184 2-8-1-1-2-2-3-3 2.64-4.257 2.307-8.59-1-13 2.281-1.482 2.281-3.149 0-5 1.09-5.394-.244-10.061-4-14 .087-2.537.087-5.037 0-7.5-.54-1.248-1.207-2.415-2-3.5.667-.333 1.333-.667 2-1-3.53-5.367-6.864-10.8674-10-16.5.209-.586.543-1.086 1-1.5-1.159-1.8267-2.492-3.4933-4-5 .333-.3333.667-.6667 1-1-1.801-.3173-2.134-.984-1-2-1.801-.3173-2.134-.984-1-2-2.01-2.3736-4.01-4.7069-6-7 .667-.3333 1.333-.6667 2-1-1.293-.49-2.627-.6567-4-.5.009-1.8084-.491-3.4751-1.5-5-4.38-4.7114-8.38-9.7114-12-15-1.011-.8366-2.178-1.17-3.5-1 0-1.3333 0-2.6667 0-4-2.331.0023-4.331-.831-6-2.5-4.476-4.4855-9.143-7.8189-14-10-3.848-3.673-8.514-7.0063-14-10-1.549-1.214-2.715-2.714-3.5-4.5-.333.6667-.667 1.3333-1 2-2.317-1.3198-4.317-2.9864-6-5-.333.6667-.667 1.3333-1 2-1.671-1.7763-3.504-2.1096-5.5-1-.236-.7472-.57-1.5805-1-2.5-1.884-.2163-3.551-.883-5-2-1.941-.7429-3.774-.5762-5.5.5-3.737-2.67441-7.737-3.67441-12-3-2.612-1.27865-4.945-2.94532-7-5-2.316.80436-4.816 1.13769-7.5 1-1.041-2.49134-1.874-2.49134-2.5 0-.626-2.49134-1.459-2.49134-2.5 0-1.598-2.47343-3.098-2.47343-4.5 0-2.328-1.93821-4.661-1.60488-7 1-2.128-2.95776-4.794-3.62442-8-2-1.797-2.59594-3.131-2.26261-4 1-.333-1-.667-2-1-3-2.058.60949-2.891 1.60949-2.5 3-2.905-2.194-5.738-1.86067-8.5 1-1.851-2.2811-3.518-2.2811-5 0-1.85-2.46213-3.017-1.96213-3.5 1.5-2.391.28681-4.724.78681-7 1.5-.667-.33333-1.333-.66667-2-1-2.072.78376-4.239 2.1171-6.5 4-.626-2.4913-1.459-2.4913-2.5 0-1.946-1.587-3.446-1.2536-4.5 1-.333-.6667-.667-1.3333-1-2-3.646.7398-6.8127 2.4065-9.5 5-.586-.2093-1.086-.5426-1.5-1-.3333 1.3333-.6667 2.6667-1 4-2.1471-.6898-4.6471-1.0231-7.5-1-3.1583 3.4012-6.4917 6.5679-10 9.5-1.4931 1.3681-2.9931 1.5348-4.5.5-7.7773 5.8522-14.444 12.1855-20 19-.7768-2.2015-1.9435-2.2015-3.5 0 1.3549 1.1753 1.1883 2.1753-.5 3-2.0846-1.1469-3.5846-.4803-4.5 2-.7975-.4569-1.1309-1.1236-1-2 27.3011-28.6512 60.634-45.65125 100-51z" fill="#1f2a21" opacity=".927"/><path d="m134.5 17.5c6.879 1.0863 13.379 1.0863 19.5 0 1.705 1.2633 3.372 1.5966 5 1 .667.6667 1.333 1.3333 2 2 3.086-.5333 6.253-.8666 9.5-1 1.798 1.832 3.632 2.1654 5.5 1 3.197.8092 6.363 1.8092 9.5 3 1.216-.5016 2.383-.8349 3.5-1 3.6 1.1487 7.1 2.482 10.5 4 .667-.3333 1.333-.6667 2-1 2.506 1.3916 5.006 2.7249 7.5 4 .414-.4574.914-.7907 1.5-1 1.333 1 2.667 2 4 3 4.49.1648 8.324 2.1648 11.5 6 1-.3333 2-.6667 3-1 7.526 4.6746 14.36 10.1746 20.5 16.5 1.26 1.113 2.427 1.2797 3.5.5 3.696 5.0215 7.362 10.0215 11 15 .333-.3333.667-.6667 1-1 .5 1.1667 1.333 2 2.5 2.5-.333.3333-.667.6667-1 1 6.508 7.4908 12.174 15.4908 17 24-.808.3076-1.475.8076-2 1.5 1.193 2.0267 2.86 3.527 5 4.5-.758 1.364-.258 2.531 1.5 3.5-.698 2.264-.198 4.097 1.5 5.5-.845 1.558-.179 2.558 2 3-.333.333-.667.667-1 1 .428 2.629 1.428 4.962 3 7-2.517 2.194-2.184 4.194 1 6 .478 3.861.478 7.527 0 11 2.447 4.131 2.447 8.131 0 12 3.073 2.803 3.406 6.136 1 10 .667.667 1.333 1.333 2 2v18c-1 .333-2 .667-3 1-.589 1.873.078 3.54 2 5-.137 2.916-1.471 5.583-4 8 .161 1.956.494 3.956 1 6-1.118 3.795-2.785 7.295-5 10.5.209.586.543 1.086 1 1.5-1.803 1.262-3.136 2.929-4 5 .333.333.667.667 1 1-1.587.862-3.254 1.529-5 2 1.333.667 2.333 1.667 3 3-5.359 9.366-11.526 18.199-18.5 26.5-1.666-.84-1.833-.34-.5 1.5-2.73 2.13-4.73 4.797-6 8-1.333.667-2.667 1.333-4 2-2.403 2.614-4.903 5.114-7.5 7.5-.333-.333-.667-.667-1-1-2.022 4.029-5.188 6.529-9.5 7.5-.667 1-1.333 2-2 3-8.25 4.804-16.417 8.971-24.5 12.5-.333-.333-.667-.667-1-1-.483.948-.649 1.948-.5 3-2.458 1.123-4.625 1.123-6.5 0-1.676.561-3.009 1.561-4 3-5.196-.561-10.196.439-15 3-1.343-.714-2.676-.38-4 1-.667-2.667-1.333-2.667-2 0-.667-2.667-1.333-2.667-2 0-6.547-.596-12.881-.596-19 0-2.454.698-4.787 1.698-7 3-3.135.637-6.135-.029-9-2-2.548-.034-5.215.299-8 1-4.582-1.481-9.082-3.148-13.5-5-1.467.223-2.967.556-4.5 1-1.53-1.136-2.863-2.136-4-3-3.484.564-6.651-.436-9.5-3-.586.209-1.086.543-1.5 1-5.3251-3.147-10.6584-6.147-16-9-2.8646.541-4.8646-.793-6-4-.3333.333-.6667.667-1 1-1.3983-4.319-4.2316-7.152-8.5-8.5-3.0044-3.504-6.3377-6.671-10-9.5-2.136-2.449-3.8026-5.116-5-8-2.4099-.421-4.2432-1.754-5.5-4-10.4784-13.067-18.3117-27.067-23.5-42 1.05-1.602.3833-2.435-2-2.5.6771-2.982.6771-5.815 0-8.5-1.7299-2.293-3.0633-4.793-4-7.5-.2072-2.632.1261-4.965 1-7-1.452-1.958-1.7854-3.958-1-6-.702-3.466-1.3687-6.966-2-10.5.1775-6.911.1775-14.078 0-21.5 1.2726-2.193 1.606-4.36 1-6.5 2.528-1.017 2.528-2.184 0-3.5 2.169-1.328 2.5023-2.994 1-5 .4026-2.641 1.4026-4.974 3-7-1.227-1.587-.8937-2.921 1-4-1.1341-1.016-.8008-1.683 1-2-.4574-.414-.7907-.914-1-1.5 1.1162-2.338 2.4496-4.504 4-6.5-.8673-2.316-.2007-4.316 2-6 0-1.667 0-3.3333 0-5 7.5493-13.8562 16.8826-26.1896 28-37-.3333-.3333-.6667-.6667-1-1 8.2647-6.3742 15.9314-13.3742 23-21l13.5-7.5c.3333.3333.6667.6667 1 1 2.1821-1.4303 4.3488-2.9303 6.5-4.5 4.49-1.5494 8.823-3.3827 13-5.5 2.534.0664 5.034.0664 7.5 0 2.312-.4551 4.312-1.4551 6-3 .667 2.6667 1.333 2.6667 2 0 .333.3333.667.6667 1 1 2.058-.7291 3.891-1.7291 5.5-3z" fill="#203427"/><path d="m130.5 28.5c7.967 1.091 16.301 1.091 25 0 48.415 4.1834 86.249 27.1834 113.5 69 25.121 50.293 20.788 97.959-13 143-17.249 19.794-38.249 34.127-63 43-4.107-.291-8.274 1.042-12.5 4-2.241 1.14-4.408 1.14-6.5 0-.853 1.625-1.853 1.958-3 1-1.667.667-3.333 1.333-5 2-.667-.667-1.333-1.333-2-2-3.016.115-6.016 1.115-9 3-1.525-.388-3.192-.388-5 0-1-.667-2-1.333-3-2-10.455 1.504-21.122.171-32-4-3.039-.4-6.039-1.733-9-4-.333.333-.667.667-1 1-2.424-2.152-5.2573-3.485-8.5-4-4.235-4.029-8.735-7.695-13.5-11-.3333.333-.6667.667-1 1-13.655-15.014-26.3217-31.014-38-48-5.2701-11.134-9.7701-22.634-13.5-34.5.3333-1 .6667-2 1-3-4.2978-20.252-3.4645-40.085 2.5-59.5 3.4332-10.018 7.4332-19.351 12-28 5.8823-8.9849 12.8823-17.6515 21-26 .8624-1.587 1.5291-3.2536 2-5 5.0698-3.9473 9.5698-8.4473 13.5-13.5 1.7464-.4709 3.413-1.1376 5-2 3.4603-3.9929 7.627-7.1595 12.5-9.5.333.3333.667.6667 1 1 6.37-4.8928 13.37-7.5595 21-8 3.201-.6853 6.035-2.0187 8.5-4z" fill="#223b2c"/><path d="m144.5 35.5c23.963 2.0666 46.296 7.8999 67 17.5 20.258 11.5912 36.591 27.2579 49 47-.333.333-.667.667-1 1 7.22 15.229 12.22 31.563 15 49-1.035 5.848-1.035 12.015 0 18.5-8.31 61.478-42.81 98.812-103.5 112-4.385-.094-8.885-.261-13.5-.5-1.372-.402-2.705-.902-4-1.5-.697 1.885-1.697 2.218-3 1-1.248.54-2.415 1.207-3.5 2-6.366-.411-13.199-.911-20.5-1.5-14.162-2.673-26.162-9.673-36-21-1.4003-1.438-3.067-2.271-5-2.5.1495-1.052-.0172-2.052-.5-3-2.4725-1.798-4.1392-4.132-5-7-.5.5-1 1-1.5 1.5 1.0536 1.388 1.2203 2.888.5 4.5-2.9156-4.92-6.5823-9.253-11-13-1.3455-6.008-4.3455-11.008-9-15-18.2017-28.093-23.8683-58.093-17-90 1.003-4.355 2.503-8.521 4.5-12.5-.3333-.333-.6667-.667-1-1 2.2306-5.231 4.8973-10.231 8-15 2.0214-6.2904 5.6881-11.957 11-17 1.1886-1.8948 2.1886-3.8948 3-6-.3333-.3333-.6667-.6667-1-1 1.9474-3.0699 4.4474-5.5699 7.5-7.5 1.5588-1.7166 2.3921-3.7166 2.5-6 3.2301-.061 5.0635-1.7277 5.5-5 4.0305-2.5385 7.5305-5.7051 10.5-9.5 4.3-2.8211 8.633-5.6545 13-8.5 1.406 1.1682 2.572.8348 3.5-1 1.147.9581 2.147.6247 3-1 .333.3333.667.6667 1 1 3.754-1.4225 7.42-3.0891 11-5 3.371.6552 6.371-.3448 9-3 .333.3333.667.6667 1 1 3.603-.6352 7.103-1.3018 10.5-2z" fill="#254131"/><path d="m129.5 42.5c6.316.7929 12.316.7929 18 0 1.959.3748 3.793 1.0415 5.5 2 1.751-.6737 3.417-1.007 5-1l1.5 1.5c2.391.2868 4.724.7868 7 1.5.586-.2093 1.086-.5426 1.5-1 4.365 2.4273 9.031 4.094 14 5 39.273 11.4411 65.773 36.6077 79.5 75.5-1.134 1.016-.801 1.683 1 2-.039 2.297-.372 4.63-1 7 .829 3.783 1.829 7.616 3 11.5-1.11 1.996-.776 3.829 1 5.5-.742 3.481-.742 6.814 0 10-.563 2.727-1.23 5.393-2 8-2.403 42.766-24.07 73.766-65 93-11.308 4.214-22.808 8.047-34.5 11.5-.333-.333-.667-.667-1-1-3.075.749-6.075 1.749-9 3-7.759-.418-15.425-.418-23 0-2.524-.604-5.024-1.271-7.5-2-.586.209-1.086.543-1.5 1-1.507-1.508-3.173-2.841-5-4-.333.333-.667.667-1 1-2.545-1.022-5.045-2.188-7.5-3.5-5.187-4.688-10.5201-9.188-16-13.5-3.921-4.221-7.7543-8.555-11.5-13-4.971-7.12-9.8043-14.286-14.5-21.5.3333-.333.6667-.667 1-1-11.8583-18.518-18.1916-38.185-19-59 2.6667-2.667 2.6667-5.333 0-8 1.3333-1.667 1.3333-3.333 0-5 1.4589-4.295 2.7923-8.628 4-13 0-2 0-4 0-6 4.882-8.725 9.382-17.225 13.5-25.5.346-1.718.846-3.385 1.5-5 7.5788-13.835 17.2454-26.6684 29-38.5 4.266-2.2658 7.933-5.2658 11-9 7.084-3.7456 14.418-6.5789 22-8.5z" fill="#294736"/><path d="m122.5 47.5c3.018-.1646 6.018.002 9 .5 4.172 1.5879 8.172 3.4212 12 5.5 6.958 5.1523 14.292 9.8189 22 14 15.933 10.6425 32.267 20.8092 49 30.5 15.154 11.114 18.821 25.281 11 42.5-2.1 2.604-4.433 5.104-7 7.5-6.169 3.584-12.169 7.417-18 11.5 5.831 4.083 11.831 7.916 18 11.5 2.567 2.396 4.9 4.896 7 7.5 7.453 15.506 4.786 29.006-8 40.5-18.734 11.024-37.068 22.524-55 34.5-4.843 1.918-9.177 4.584-13 8-4.537 2.43-8.87 5.097-13 8-10.863 4.184-20.363 2.184-28.5-6-1.646-2.109-2.812-4.443-3.5-7-.801-1.542-1.134-3.208-1-5-.167-19.669 0-39.336.5-59 2.034-6.083 5.534-11.083 10.5-15 26.392-16.281 52.559-32.948 78.5-50 .847-3.088.347-5.921-1.5-8.5-19.201-12.032-38.535-23.8651-58-35.5-1.333 11.6667-1.333 23.333 0 35 10.167 5.916 20.167 12.083 30 18.5-9.502 5.583-18.835 11.416-28 17.5-6.694-4.011-13.361-8.011-20-12-5.788-4.212-9.621-9.878-11.5-17-.5-19.33-.667-38.6638-.5-58-.134-1.7915.199-3.4582 1-5 3.27-8.2986 9.27-13.2986 18-15z" fill="#fdfdfd"/><path d="m136.5 269.5c4.13-2.903 8.463-5.57 13-8 31.13-4.592 57.63-18.592 79.5-42 3.063-4.069 5.73-8.402 8-13 1-.667 2-1.333 3-2 2.596-5.417 4.096-10.917 4.5-16.5.789-3.271 1.789-6.605 3-10-.402-11.397-.402-22.23 0-32.5-1.293-5.93-2.127-11.93-2.5-18-4.288-15.884-12.454-29.3843-24.5-40.5-9.154-7.0795-18.82-13.4128-29-19-13.461-5.172-26.795-9.672-40-13.5-1.303 1.2178-2.303.8845-3-1-1.503.5522-3.169.5522-5 0-3.828-2.0788-7.828-3.9121-12-5.5-2.982-.498-5.982-.6646-9-.5 6.773-2.5375 13.606-2.8709 20.5-1 2.351-.3201 4.684-.6535 7-1 .167.3333.333.6667.5 1-1.229.7811-2.562 1.2811-4 1.5 5.454 2.061 11.12 3.3944 17 4 7.518 1.4869 14.185 3.8203 20 7 6.323.2587 11.656 2.592 16 7 .948.4828 1.948.6495 3 .5v3c3.734.9134 7.4 2.2467 11 4 3.867 3.036 7.867 5.8693 12 8.5 2.829 3.8631 5.496 7.6964 8 11.5 1.052-.1495 2.052.0172 3 .5-.333.3333-.667.6667-1 1 5.708 4.3694 9.875 9.869 12.5 16.5.642 2.262 1.475 4.429 2.5 6.5-.457.414-.791.914-1 1.5 1.783 3.173 3.283 6.506 4.5 10 .839 8.82 2.006 17.32 3.5 25.5-.291 11.28-1.625 22.614-4 34l1 1c-3.434 7.306-6.267 14.806-8.5 22.5-2.381 3.007-4.714 6.007-7 9-1.281-.119-2.448.381-3.5 1.5.457.414.791.914 1 1.5-1.128.762-2.295 1.429-3.5 2-1.318 6.399-5.151 10.232-11.5 11.5l1 1c-2.115 2.2-4.449 4.2-7 6-12.508 7.007-25.008 13.173-37.5 18.5-.333-.333-.667-.667-1-1-4.441 2.289-9.108 3.955-14 5-.333-.333-.667-.667-1-1-8.233 3.23-16.733 4.23-25.5 3z" fill="#2d4e3c"/><path d="m143.5 53.5c1.831.5522 3.497.5522 5 0 .697 1.8845 1.697 2.2178 3 1 13.205 3.828 26.539 8.328 40 13.5 10.18 5.5872 19.846 11.9205 29 19 12.046 11.1157 20.212 24.616 24.5 40.5.373 6.07 1.207 12.07 2.5 18-.402 10.27-.402 21.103 0 32.5-1.211 3.395-2.211 6.729-3 10-.404 5.583-1.904 11.083-4.5 16.5-1 .667-2 1.333-3 2-2.27 4.598-4.937 8.931-8 13-21.87 23.408-48.37 37.408-79.5 42 3.823-3.416 8.157-6.082 13-8 17.035-4.838 33.369-12.671 49-23.5 14.335-11.02 23.002-25.187 26-42.5 3.488-18.485 3.488-36.818 0-55 .209-.586.543-1.086 1-1.5-3.185-8.26-6.685-16.76-10.5-25.5-14.876-17.0673-32.876-28.734-54-35-.5-1.1667-1.333-2-2.5-2.5-2.158-.9087-4.158-1.0754-6-.5-7.708-4.1811-15.042-8.8477-22-14z" fill="#335442"/><path d="m104.5 62.5c-.801 1.5418-1.134 3.2085-1 5-.973 2.4479-1.306 5.1146-1 8-6.1457 8.2656-12.3124 16.5989-18.5 25-1.3243 4.345-3.1577 8.512-5.5 12.5.9581 1.147.6247 2.147-1 3 .3333.333.6667.667 1 1-3.4031 5.151-5.7365 10.817-7 17 .0794 2.091.4128 4.258 1 6.5-1.3897 1.669-1.7231 3.336-1 5-.9439 3.938-1.6105 7.938-2 12 .5979 9.208 1.4313 18.875 2.5 29 3.5702 11.208 7.5702 22.208 12 33 6.6713 8.031 12.838 16.365 18.5 25-.302 2.559.032 4.893 1 7-.134 1.792.199 3.458 1 5-2.377-1.286-4.5435-2.952-6.5-5-4.312-5.254-8.6453-10.588-13-16-3.9532-5.006-7.4532-10.339-10.5-16-.2265-3.679-1.7265-6.679-4.5-9-1.7524-8.248-4.5858-16.414-8.5-24.5.3333-.333.6667-.667 1-1-2.1352-8.533-3.8018-16.867-5-25 1.3405-8.877 2.8405-17.71 4.5-26.5 4.1141-10.871 8.2807-21.704 12.5-32.5 7.6359-14.7875 17.6359-27.6208 30-38.5z" fill="#2c4e3b"/><path d="m162.5 253.5c17.932-11.976 36.266-23.476 55-34.5 12.786-11.494 15.453-24.994 8-40.5-1.003-12.498-1.003-25.165 0-38 7.821-17.219 4.154-31.386-11-42.5-16.733-9.6908-33.067-19.8575-49-30.5 1.842-.5754 3.842-.4087 6 .5 1.167.5 2 1.3333 2.5 2.5 21.124 6.266 39.124 17.9327 54 35 3.815 8.74 7.315 17.24 10.5 25.5-.457.414-.791.914-1 1.5 3.488 18.182 3.488 36.515 0 55-2.998 17.313-11.665 31.48-26 42.5-15.631 10.829-31.965 18.662-49 23.5z" fill="#3b5d4a"/><path d="m102.5 86.5c.167 11.3382 0 22.672-.5 34-.692.525-1.192 1.192-1.5 2-.8778 2.412-.8778 5.079 0 8-.8051 3.467-1.8051 6.967-3 10.5.8838 2.473 1.2172 4.807 1 7-.6667.667-1.3333 1.333-2 2 1.1286 6.155 1.1286 12.321 0 18.5.5656 2.197 1.2323 4.364 2 6.5-.6958 2.407-1.0291 4.74-1 7 2.3075.354 2.641 1.354 1 3 3.713 15.845 5.046 32.012 4 48.5-1.645-.979-2.9787-2.312-4-4-4.1338-7.595-8.3005-15.262-12.5-23 .0198-4.225-1.1469-8.058-3.5-11.5 1.0171-1.049 1.1838-2.216.5-3.5-.3333.333-.6667.667-1 1-.3095-1.266-.8095-2.433-1.5-3.5.9581-1.147.6247-2.147-1-3 .5509-1.398.8842-2.732 1-4-1.2633-1.705-1.5966-3.372-1-5-.6667-1.667-1.3333-3.333-2-5 .3333-.333.6667-.667 1-1-.7736-3.772-1.4402-7.605-2-11.5 1.026-2.812 1.026-5.312 0-7.5 1.0819-6.961 2.7486-13.628 5-20-.3333-.333-.6667-.667-1-1 1.3866-4.395 3.3866-8.895 6-13.5-.9279-1.268-1.0946-2.601-.5-4 3.9775-8.28 8.3109-16.28 13-24 1.039-1.2101 2.206-2.2101 3.5-3z" fill="#385c49"/><path d="m114.5 177.5c1.458-3.224 1.125-6.224-1-9 1.19-5.92 1.19-12.087 0-18.5 1.778-2.135 2.445-4.635 2-7.5 6.639 3.989 13.306 7.989 20 12 9.165-6.084 18.498-11.917 28-17.5-9.833-6.417-19.833-12.584-30-18.5-1.333-11.667-1.333-23.3333 0-35 19.465 11.6349 38.799 23.468 58 35.5 1.847 2.579 2.347 5.412 1.5 8.5-25.941 17.052-52.108 33.719-78.5 50z" fill="#537463"/><path d="m103.5 67.5c-.167 19.3362 0 38.67.5 58 1.879 7.122 5.712 12.788 11.5 17 .445 2.865-.222 5.365-2 7.5 1.19 6.413 1.19 12.58 0 18.5 2.125 2.776 2.458 5.776 1 9-4.966 3.917-8.466 8.917-10.5 15-.5 19.664-.667 39.331-.5 59-.968-2.107-1.302-4.441-1-7 0-3.667 0-7.333 0-11 1.046-16.488-.287-32.655-4-48.5 1.641-1.646 1.3075-2.646-1-3-.0291-2.26.3042-4.593 1-7-.7677-2.136-1.4344-4.303-2-6.5 1.1286-6.179 1.1286-12.345 0-18.5.6667-.667 1.3333-1.333 2-2 .2172-2.193-.1162-4.527-1-7 1.1949-3.533 2.1949-7.033 3-10.5-.8778-2.921-.8778-5.588 0-8 .308-.808.808-1.475 1.5-2 .5-11.328.667-22.6618.5-34 0-3.6667 0-7.3333 0-11-.306-2.8854.027-5.5521 1-8z" fill="#476a57"/><path d="m225.5 140.5c-1.003 12.835-1.003 25.502 0 38-2.1-2.604-4.433-5.104-7-7.5-6.169-3.584-12.169-7.417-18-11.5 5.831-4.083 11.831-7.916 18-11.5 2.567-2.396 4.9-4.896 7-7.5z" fill="#4a6b59"/><path d="m102.5 75.5v11c-1.294.7899-2.461 1.7899-3.5 3-4.6891 7.72-9.0225 15.72-13 24-.5946 1.399-.4279 2.732.5 4-2.6134 4.605-4.6134 9.105-6 13.5.3333.333.6667.667 1 1-2.2514 6.372-3.9181 13.039-5 20 1.026 2.188 1.026 4.688 0 7.5.5598 3.895 1.2264 7.728 2 11.5-.3333.333-.6667.667-1 1 .6667 1.667 1.3333 3.333 2 5-.5966 1.628-.2633 3.295 1 5-.1158 1.268-.4491 2.602-1 4 1.6247.853 1.9581 1.853 1 3 .6905 1.067 1.1905 2.234 1.5 3.5.3333-.333.6667-.667 1-1 .6838 1.284.5171 2.451-.5 3.5 2.3531 3.442 3.5198 7.275 3.5 11.5 4.1995 7.738 8.3662 15.405 12.5 23 1.0213 1.688 2.355 3.021 4 4v11c-5.662-8.635-11.8287-16.969-18.5-25-4.4298-10.792-8.4298-21.792-12-33-1.0687-10.125-1.9021-19.792-2.5-29 .3895-4.062 1.0561-8.062 2-12-.7231-1.664-.3897-3.331 1-5-.5872-2.242-.9206-4.409-1-6.5 1.2635-6.183 3.5969-11.849 7-17-.3333-.333-.6667-.667-1-1 1.6247-.853 1.9581-1.853 1-3 2.3423-3.988 4.1757-8.155 5.5-12.5 6.1876-8.4011 12.3543-16.7344 18.5-25z" fill="#325441"/><path d="m170.5 177.5c8.101 3.581 15.601 8.247 22.5 14 .755 2.803.422 5.47-1 8-19.667 12.333-39.333 24.667-59 37-.833-12.014-.666-24.014.5-36 12.565-7.441 24.899-15.108 37-23z" fill="#537462"/></svg>