<svg height="228" width="228" xmlns="http://www.w3.org/2000/svg"><path d="m0 0c1.00643555.31348389 1.00643555.31348389 2.03320312.63330078 15.23162879 4.85535445 29.18393182 12.5162911 40.96679688 23.36669922.78286377.71929688.78286377.71929688 1.58154297 1.453125 16.18001049 15.03616112 27.47207318 33.26152372 33.41845703 54.546875.3196875 1.06347656.639375 2.12695312.96875 3.22265625 4.7697554 18.8802818 4.02016006 41.25531999-1.96875 59.77734375-.31348389 1.00643555-.31348389 1.00643555-.63330078 2.03320312-4.85535445 15.23162879-12.5162911 29.18393182-23.36669922 40.96679688-.47953125.52190918-.9590625 1.04381836-1.453125 1.58154297-15.03616112 16.18001049-33.26152372 27.47207318-54.546875 33.41845703-1.06347656.3196875-2.12695312.639375-3.22265625.96875-18.8802818 4.7697554-41.25531999 4.02016006-59.77734375-1.96875-1.00643555-.31348389-1.00643555-.31348389-2.03320312-.63330078-15.23162879-4.85535445-29.18393182-12.5162911-40.96679688-23.36669922-.52190918-.47953125-1.04381836-.9590625-1.58154297-1.453125-16.18001049-15.03616112-27.47207318-33.26152372-33.41845703-54.546875-.3196875-1.06347656-.639375-2.12695312-.96875-3.22265625-4.7697554-18.8802818-4.02016006-41.25531999 1.96875-59.77734375.31348389-1.00643555.31348389-1.00643555.63330078-2.03320312 4.85535445-15.23162879 12.5162911-29.18393182 23.36669922-40.96679688.47953125-.52190918.9590625-1.04381836 1.453125-1.58154297 15.03616112-16.18001049 33.26152372-27.47207318 54.546875-33.41845703 1.06347656-.3196875 2.12695312-.639375 3.22265625-.96875 18.8802818-4.7697554 41.25531999-4.02016006 59.77734375 1.96875z" fill="#714dbc" transform="translate(147 4)"/><path d="m0 0c1.46535356.02652224 2.93044676.07413383 4.39453125.140625.74958984.01804688 1.49917969.03609375 2.27148437.0546875 1.84755273.04707141 3.69444722.11881484 5.54101563.1953125-.62372612 4.27524893-1.61091822 7.77150343-3.37890625 11.6796875-1.66095456 6.20507551-1.00402195 10.12778917 1.9765625 15.7109375 1.13906717 1.96242909 2.29475561 3.91528248 3.46484375 5.859375.88558594 1.53841553.88558594 1.53841553 1.7890625 3.10791016 2.41721512 4.17766493 4.82931924 8.31077613 7.67578125 12.21240234 4.35053026 6.18550638 4.89724246 10.26103336 3.66015625 17.5546875-1.27977524 7.07380529-1.27977524 7.07380529-3.78515625 9.28515625-4.39979415 1.08027466-8.88362751 1.64773293-13.37890625 2.18164063-2.53218514.32619458-2.53218514.32619458-6.0234375 1.40820312-1.38692412 2.27915618-1.38692412 2.27915618-2 5-2.81767615 4.138067-5.86158778 6.47876946-10.125 9.0625-1.05445313.65097656-2.10890625 1.30195313-3.1953125 1.97265625-8.55600169 4.76203422-17.65878513 7.1288567-27.14160156 9.25732422-2.06412181.46336419-4.12541576.93797439-6.18652344 1.41455078-10.003194 2.29296875-10.003194 2.29296875-12.3515625 2.29296875-1.48547193-4.22885412-2.90603699-8.47373935-4.27246094-12.7421875-.47515398-1.47457182-.95978478-2.94613271-1.45507812-4.4140625-3.40508355-10.22914895-4.75295029-19.86018716-4.83496094-30.65625-.01458252-1.11544189-.02916504-2.23088379-.04418945-3.38012695.08015875-6.37140631.64547969-9.83026655 4.60668945-14.80737305 0-6.03277322-1.96413706-10.94791705-4.2578125-16.484375-.84502574-2.86419249-.74336209-3.75062658.2578125-6.515625 2.53734412-3.99125274 5.64454113-7.09249977 10-9 7.4466479-1.51512302 15.25954909-.94824641 22.8125-.75 3.09151627.05925306 6.18155631.10515351 9.27360535.12176514 1.91466995.01230998 3.8293922.04994436 5.74295044.116333 4.57990198.04961439 6.49800276.03850473 10.21342468-2.86895752 1.95233822-2.49732634 1.95233822-2.49732634 3.25830078-4.91601562 1.69921875-1.703125 1.69921875-1.703125 5.4921875-2.09375z" fill="#6244ac" transform="translate(136.792969 60.609375)"/><path d="m0 0c4.22149776.02417947 8.44169373.06373532 12.66259766.13989258 1.09183593.01675781 2.18367187.03351562 3.30859375.05078125 4.23798939.22576808 6.27645708.67258597 9.87890625 3.07421875 1.85956229 2.94965053 2.28957948 4.26951755 1.546875 7.65625-1.34815238 4.07314123-3.04859922 8.01134877-4.7734375 11.9375-1.43113375 4.88679816-1.01188524 8.17101037 1.26904296 12.75097656 1.61150078 2.8438249 3.29748686 5.62735968 5.02001954 8.40527344 1.15211533 1.89257598 2.30317001 3.78579808 3.453125 5.6796875.5556665.91499267 1.111333 1.82998535 1.68383789 2.77270508 1.51452888 2.50939119 3.02718937 5.01725011 4.49975586 7.55151367.39662841.67619385.79325683 1.35238769 1.20190429 2.04907226 2.96194222 6.73399507.81712317 14.56062501-.71362304 21.44702149-.13978272.67812744-.27956543 1.35625488-.42358399 2.05493164-1.31023655 5.25855515-3.427759 7.68656769-7.95141601 10.57006836-2.66081982.71414749-5.11683235 1.24772437-7.8125 1.6875-7.17078028 1.46932918-10.20169907 3.76989015-14.72265625 9.64453125-3.10264111 3.35832626-6.42133866 5.35535475-10.40234375 7.54296875-.64453125.35666748-1.2890625.71333496-1.953125 1.08081054-9.48784018 5.04457435-19.22407491 8.05629558-29.66894532 10.39160157-2.07267012.46671827-4.1390403.95642274-6.20605468 1.44750976-13.15238413 3.0410171-13.15238413 3.0410171-19.234375 1.20507813-4.57212278-3.37091858-6.12587244-7.17519912-7.5625-12.5-.41395097-1.42841774-.82801507-2.85680271-1.2421875-4.28515625-.19948243-.70914551-.39896485-1.41829102-.60449219-2.14892578-.86392075-3.0208667-1.82615442-6.00938522-2.77832031-9.00341797-.63605726-2.01102359-1.23802594-4.03302611-1.8125-6.0625-.18022705-.61480225-.36045411-1.22960449-.54614258-1.86303711-1.88277113-7.21295243-1.78501451-14.4101385-1.76635742-21.82446289-.01611328-1.29228516-.03222657-2.58457031-.04882813-3.91601563-.00064453-1.24845703-.00128906-2.49691406-.00195312-3.78320312-.00298096-1.12623779-.00596192-2.25247559-.00903321-3.4128418.42118116-3.6205008 1.69173369-5.99647463 3.37231446-9.20043945-.14571183-4.00707528-.87690584-6.73411661-2.5625-10.375-1.75804752-4.43333723-2.54355785-7.93238691-1.4375-12.625 1.88902416-3.15442817 4.31766416-5.50689421 7-8 .86496093-.81339844 1.72992187-1.62679688 2.62109375-2.46484375 8.35107327-7.67232131 8.35107327-7.67232131 13.54980468-7.61352539.86139588.00587631 1.72279175.01175262 2.61029053.017807.93330139.00838395 1.86660278.01676789 2.82818604.02540589 1.97135937-.00371381 3.94271559-.00964351 5.9140625-.01757813 3.11247998-.01055161 6.22267198-.0098136 9.33496093.02856446 3.00159108.03316543 5.99939335.01551151 9.00097657-.01098633.92520446.02255356 1.85040893.04510711 2.8036499.06834411 5.12074097-.08786705 5.12074097-.08786705 9.26385498-2.84346008 1.50649683-2.00406799 2.81488962-4.02383008 4.07312012-6.18972778 1.92700504-1.92700505 4.77576508-1.13244447 7.33740234-1.13989258zm-3.40771484 12.62817383c-1.44976598 2.10201746-1.44976598 2.10201746-2.9296875 5.51171875-3.13992492 2.09328327-3.74648395 2.23886135-7.296875 2.16015625-.86520264-.01240723-1.73040528-.02481446-2.62182618-.03759766-.93432861-.01981933-1.86865722-.03963867-2.83129882-.06005859-1.99087598-.00894329-3.98176454-.01537123-5.97265625-.01953125-3.13009223-.01418102-6.25690566-.04249688-9.38623047-.1147461-14.50787284-.7127436-14.50787284-.7127436-26.83642578 5.8100586-2.63345465 2.77588096-3.96114828 4.19951431-4.29833985 8.02856445.40372478 2.65094783 1.15591081 4.78573584 2.24365235 7.2331543.2784375.66257812.556875 1.32515625.84375 2.0078125.2578125.59554687.515625 1.19109375.78125 1.8046875 1.379948 3.19897036 1.98521547 4.78772808 1.375 8.1875-.65613282.79277344-1.31226563 1.58554687-1.98828125 2.40234375-3.20325082 4.70645232-2.68967746 10.10198637-2.63671875 15.59765625.00547851 1.14613769.01095703 2.29227539.01660156 3.47314453.27559563 11.46572854 2.96634711 21.72408341 6.60839844 32.52685547.43171111 1.34310123.86159077 2.68679348 1.2890625 4.03125.86757147 2.67137115 1.76281857 5.32517134 2.7109375 7.96875 33.44688034-5.18058754 33.44688034-5.18058754 59.6875-24.375 1.46157119-2.43400253 1.46157119-2.43400253 1.3125-4.625.59538574-.09498779 1.19077148-.18997559 1.80419922-.2878418 2.69469193-.44332707 5.38217232-.92098697 8.07080078-1.3996582.93714843-.14888672 1.87429687-.29777344 2.83984375-.45117188.89589843-.16435547 1.79179687-.32871093 2.71484375-.49804687.82741699-.14139404 1.65483398-.28278809 2.50732422-.4284668 2.26635974-.77484087 2.26635974-.77484087 3.24853515-3.15039062.26876953-.91885987.53753906-1.83771973.81445313-2.78442383.44593505-1.39919678.44593505-1.39919678.9008789-2.82666016 1.93425234-8.52284146.16891341-13.74640898-4.21728515-20.92724609-.76860504-1.20762125-1.53814311-2.41464914-2.30859375-3.62109375-.74940585-1.22845436-1.49552473-2.45892016-2.23828125-3.69140625-2.01614785-3.32975823-4.07462423-6.63207758-6.13671875-9.93359375-3.1032783-5.04580491-5.09247055-8.93888938-4-15 .92857947-2.91782084 1.97271312-5.74532501 3.125-8.58203125 1.04513949-2.45956111 1.04513949-2.45956111.875-5.41796875-9.46806369-1.16567645-9.46806369-1.16567645-18.0703125 1.48828125z" fill="#faf9fb" transform="translate(134.337402 49.860107)"/><path d="m0 0c1.26154907.04568115 1.26154907.04568115 2.54858398.09228516 2.40438434.09808121 4.800662.24496965 7.20141602.40771484 1.68029297.08894531 1.68029297.08894531 3.39453125.1796875 6.24211962.45696337 6.24211962.45696337 8.60546875 2.8203125-1.17175781-.0721875-2.34351563-.144375-3.55078125-.21875-4.06147966-.24529814-8.12412124-.45536457-12.18798828-.65673828-1.90011662-.10462746-3.79800691-.24864269-5.69482422-.40185547-5.05817876-.35949439-5.05817876-.35949439-9.5625 1.6171875-1.90079676 1.78952875-1.90079676 1.78952875-4.00390625 4.66015625-.66-.33-1.32-.66-2-1 4.30212792-6.59574508 7.5022303-8.0217714 15.25-7.5z" fill="#eae9ed" transform="translate(137.25 49.5)"/><path d="m0 0c0 3 0 3-2.1875 5.48046875-.928125.89332031-1.85625 1.78664063-2.8125 2.70703125-.928125.90105469-1.85625 1.80210938-2.8125 2.73046875-.721875.68707031-1.44375 1.37414062-2.1875 2.08203125-.33-.99-.66-1.98-1-3z" fill="#8461c0" transform="translate(80 71)"/></svg>