<svg enable-background="new 0 0 84 84" viewBox="0 0 84 84" xmlns="http://www.w3.org/2000/svg" xmlns:xlink="http://www.w3.org/1999/xlink"><clipPath id="a"><path d="m26 20h31.08v44h-31.08z"/></clipPath><circle cx="42" cy="42" fill="#010202" r="42"/><g clip-path="url(#a)"><path d="m57.08 38.18-6.34 2.82-16.81 8.55 16.81 8.08v-13.34l6.34-2.85v19.73l-6.34 2.82-24.74-11.85v-6.29l17.13-8.4-17.13-8.24v-6.39l6.44-2.82 24.65 11.86v6.32z" fill="#51bcbc"/><path d="m26 22.83 24.75 11.86 6.34-2.82-24.65-11.87z" fill="#087a8f"/><path d="m50.75 34.66 6.34-2.82v6.32l-6.34 2.82z" fill="#298e97"/><path d="m26 22.83v6.39l17.13 8.23-17.13 8.4v6.3l24.75 11.84v-6.34l-16.81-8.09 16.81-8.55v-6.31z" fill="#51bcbc"/><path d="m50.75 63.95 6.34-2.82v-19.74l-6.34 2.85z" fill="#298e97"/></g></svg>